<?xml version="1.0" encoding="UTF-8"?>
<!DOCTYPE svg PUBLIC "-//W3C//DTD SVG 1.1//EN" "http://www.w3.org/Graphics/SVG/1.1/DTD/svg11.dtd">
<!-- Creator: CorelDRAW 2020 (64 Bit) -->
<svg xmlns="http://www.w3.org/2000/svg" xml:space="preserve" width="56.0751mm" height="56.0788mm" version="1.1" style="shape-rendering:geometricPrecision; text-rendering:geometricPrecision; image-rendering:optimizeQuality; fill-rule:evenodd; clip-rule:evenodd"
viewBox="0 0 226.84 226.86"
 xmlns:xlink="http://www.w3.org/1999/xlink"
 xmlns:xodm="http://www.corel.com/coreldraw/odm/2003">
 <defs>
  <style type="text/css">
   <![CDATA[
    .fil0 {fill:#FEFEFE}
   ]]>
  </style>
 </defs>
 <g id="Camada_x0020_1">
  <metadata id="CorelCorpID_0Corel-Layer"/>
  <path class="fil0" d="M104.01 0.4c-59.46,5.22 -108.97,56.57 -103.61,122.59 4.8,59.12 57,108.86 122.54,103.46 59.06,-4.87 109.01,-56.92 103.49,-122.64 -1.46,-17.33 -6.18,-30.08 -12.74,-43.47 -3.85,-7.85 -11.95,-18.62 -17.64,-24.74 -22.73,-24.48 -58.09,-38.19 -92.04,-35.2zm4.34 48.66c-14.75,2.56 -27.63,16.64 -24.79,34.52 2.37,14.88 16.2,27.91 34.29,25.18 15.17,-2.29 28.34,-16.4 25.39,-34.79 -2.38,-14.83 -16.85,-28.04 -34.89,-24.91zm-0.46 81.62c-20.54,1.57 -41.61,11.45 -53.56,26.26 -10.15,12.58 -15.52,15.97 4.05,30.3 17.64,12.92 37.18,20.23 61.22,18.58 23.04,-1.59 39.9,-10.52 55.35,-24.1 1.79,-1.58 5,-4.52 6.13,-6.89 1.92,-4.04 -0.5,-7.26 -2.24,-9.8 -12.46,-18.16 -36.69,-36.97 -70.95,-34.35z"/>
 </g>
</svg>
