<?xml version="1.0" encoding="UTF-8"?>
<!DOCTYPE svg PUBLIC "-//W3C//DTD SVG 1.1//EN" "http://www.w3.org/Graphics/SVG/1.1/DTD/svg11.dtd">
<!-- Creator: CorelDRAW 2020 (64 Bit) -->
<svg xmlns="http://www.w3.org/2000/svg" xml:space="preserve" width="182.345mm" height="57.4531mm" version="1.1" style="shape-rendering:geometricPrecision; text-rendering:geometricPrecision; image-rendering:optimizeQuality; fill-rule:evenodd; clip-rule:evenodd"
viewBox="0 0 3153.7 993.67"
 xmlns:xlink="http://www.w3.org/1999/xlink"
 xmlns:xodm="http://www.corel.com/coreldraw/odm/2003">
 <defs>
  <style type="text/css">
   <![CDATA[
    .fil0 {fill:#FEFEFE}
   ]]>
  </style>
 </defs>
 <g id="Camada_x0020_1">
  <metadata id="CorelCorpID_0Corel-Layer"/>
  <g id="_2458613980368">
   <path class="fil0" d="M1322.07 440.78c151.64,386.84 -306.15,436.76 -376.32,169.96 -33.33,-126.71 41.19,-245.98 143.86,-276.99 35,-10.57 85.46,-9.41 120.78,-1.86 4.13,0.88 208.34,-138.85 210.49,-141.15 -57.86,-61.07 -213,-97.34 -318.75,-84.75 -306.23,36.45 -512.49,412.62 -294.49,712.98 192.37,265.05 621.89,221.31 748.74,-111.47 52.92,-138.84 18.1,-215.54 -0.27,-347.26l73.86 -33.25c0.58,258.61 -31.81,421.02 124.02,570.74 80.72,77.56 206.17,116.19 349.81,85.25 120.38,-25.93 205.01,-109.38 249.59,-200.73 50.1,-102.65 33.75,-282.81 34.02,-405.14l0.74 -263.11 -217.14 -0.66 -0.68 217.17c-0.48,155.12 26.47,346.14 -64.22,414.25 -76.79,57.67 -255.8,55.97 -255.61,-165.77 0.08,-92.55 12.57,-396.26 -4.73,-466.13 -73.19,57.95 -467.69,285.94 -523.71,327.91z"/>
   <path class="fil0" d="M1322.07 440.78c151.64,386.84 -306.15,436.76 -376.32,169.96 -33.33,-126.71 41.19,-245.98 143.86,-276.99 35,-10.57 85.46,-9.41 120.78,-1.86 4.13,0.88 208.34,-138.85 210.49,-141.15 -57.86,-61.07 -213,-97.34 -318.75,-84.75 -306.23,36.45 -512.49,412.62 -294.49,712.98 192.37,265.05 621.89,221.31 748.74,-111.47 52.92,-138.84 18.1,-215.54 -0.27,-347.26l73.86 -33.25c0.58,258.61 -31.81,421.02 124.02,570.74 80.72,77.56 206.17,116.19 349.81,85.25 120.38,-25.93 205.01,-109.38 249.59,-200.73 50.1,-102.65 33.75,-282.81 34.02,-405.14l0.74 -263.11 -217.14 -0.66 -0.68 217.17c-0.48,155.12 26.47,346.14 -64.22,414.25 -76.79,57.67 -255.8,55.97 -255.61,-165.77 0.08,-92.55 12.57,-396.26 -4.73,-466.13 -73.19,57.95 -467.69,285.94 -523.71,327.91z"/>
   <path class="fil0" d="M1322.07 440.78c151.64,386.84 -306.15,436.76 -376.32,169.96 -33.33,-126.71 41.19,-245.98 143.86,-276.99 35,-10.57 85.46,-9.41 120.78,-1.86 4.13,0.88 208.34,-138.85 210.49,-141.15 -57.86,-61.07 -213,-97.34 -318.75,-84.75 -306.23,36.45 -512.49,412.62 -294.49,712.98 192.37,265.05 621.89,221.31 748.74,-111.47 52.92,-138.84 18.1,-215.54 -0.27,-347.26l73.86 -33.25c0.58,258.61 -31.81,421.02 124.02,570.74 80.72,77.56 206.17,116.19 349.81,85.25 120.38,-25.93 205.01,-109.38 249.59,-200.73 50.1,-102.65 33.75,-282.81 34.02,-405.14l0.74 -263.11 -217.14 -0.66 -0.68 217.17c-0.48,155.12 26.47,346.14 -64.22,414.25 -76.79,57.67 -255.8,55.97 -255.61,-165.77 0.08,-92.55 12.57,-396.26 -4.73,-466.13 -73.19,57.95 -467.69,285.94 -523.71,327.91z"/>
   <path class="fil0" d="M1322.07 440.78c151.64,386.84 -306.15,436.76 -376.32,169.96 -33.33,-126.71 41.19,-245.98 143.86,-276.99 35,-10.57 85.46,-9.41 120.78,-1.86 4.13,0.88 208.34,-138.85 210.49,-141.15 -57.86,-61.07 -213,-97.34 -318.75,-84.75 -306.23,36.45 -512.49,412.62 -294.49,712.98 192.37,265.05 621.89,221.31 748.74,-111.47 52.92,-138.84 18.1,-215.54 -0.27,-347.26l73.86 -33.25c0.58,258.61 -31.81,421.02 124.02,570.74 80.72,77.56 206.17,116.19 349.81,85.25 120.38,-25.93 205.01,-109.38 249.59,-200.73 50.1,-102.65 33.75,-282.81 34.02,-405.14l0.74 -263.11 -217.14 -0.66 -0.68 217.17c-0.48,155.12 26.47,346.14 -64.22,414.25 -76.79,57.67 -255.8,55.97 -255.61,-165.77 0.08,-92.55 12.57,-396.26 -4.73,-466.13 -73.19,57.95 -467.69,285.94 -523.71,327.91z"/>
   <path class="fil0" d="M2662.21 314.36c61.04,-0.74 169.38,-9.63 209.94,23.95 21.91,18.14 45.31,66.33 33.23,110.23 -24.39,88.57 -143.28,75.47 -240.9,73.54l-1.27 -67.31 -0.99 -140.4zm295.38 373.36c110.53,-77.37 179.72,-114.89 172.56,-280.94 -3.02,-70.14 -28.83,-138.42 -73.97,-190.05 -108.3,-128.4 -583.57,-103.79 -604.71,-103.8l-0.01 860.51 211.24 0 1.47 -284.42c52.98,2.33 183.87,218.44 219.04,267.34 27.03,19.62 32.04,17.6 74.9,17.05 65.26,-0.84 130.35,-0.28 195.61,-0.18 -17.76,-67.42 -165.34,-203.13 -196.11,-285.52z"/>
   <path class="fil0" d="M2662.21 314.36c61.04,-0.74 169.38,-9.63 209.94,23.95 21.91,18.14 45.31,66.33 33.23,110.23 -24.39,88.57 -143.28,75.47 -240.9,73.54l-1.27 -67.31 -0.99 -140.4zm295.38 373.36c110.53,-77.37 179.72,-114.89 172.56,-280.94 -3.02,-70.14 -28.83,-138.42 -73.97,-190.05 -108.3,-128.4 -583.57,-103.79 -604.71,-103.8l-0.01 860.51 211.24 0 1.47 -284.42c52.98,2.33 183.87,218.44 219.04,267.34 27.03,19.62 32.04,17.6 74.9,17.05 65.26,-0.84 130.35,-0.28 195.61,-0.18 -17.76,-67.42 -165.34,-203.13 -196.11,-285.52z"/>
   <path class="fil0" d="M2662.21 314.36c61.04,-0.74 169.38,-9.63 209.94,23.95 21.91,18.14 45.31,66.33 33.23,110.23 -24.39,88.57 -143.28,75.47 -240.9,73.54l-1.27 -67.31 -0.99 -140.4zm295.38 373.36c110.53,-77.37 179.72,-114.89 172.56,-280.94 -3.02,-70.14 -28.83,-138.42 -73.97,-190.05 -108.3,-128.4 -583.57,-103.79 -604.71,-103.8l-0.01 860.51 211.24 0 1.47 -284.42c52.98,2.33 183.87,218.44 219.04,267.34 27.03,19.62 32.04,17.6 74.9,17.05 65.26,-0.84 130.35,-0.28 195.61,-0.18 -17.76,-67.42 -165.34,-203.13 -196.11,-285.52z"/>
   <path class="fil0" d="M2662.21 314.36c61.04,-0.74 169.38,-9.63 209.94,23.95 21.91,18.14 45.31,66.33 33.23,110.23 -24.39,88.57 -143.28,75.47 -240.9,73.54l-1.27 -67.31 -0.99 -140.4zm295.38 373.36c110.53,-77.37 179.72,-114.89 172.56,-280.94 -3.02,-70.14 -28.83,-138.42 -73.97,-190.05 -108.3,-128.4 -583.57,-103.79 -604.71,-103.8l-0.01 860.51 211.24 0 1.47 -284.42c52.98,2.33 183.87,218.44 219.04,267.34 27.03,19.62 32.04,17.6 74.9,17.05 65.26,-0.84 130.35,-0.28 195.61,-0.18 -17.76,-67.42 -165.34,-203.13 -196.11,-285.52z"/>
   <polygon class="fil0" points="0.01,219.12 304.63,219.08 304.61,973.44 519.15,973.45 519.15,219.08 765.14,219.09 765.15,0.02 -0,0 "/>
   <polygon class="fil0" points="0.01,219.12 304.63,219.08 304.61,973.44 519.15,973.45 519.15,219.08 765.14,219.09 765.15,0.02 -0,0 "/>
   <polygon class="fil0" points="0.01,219.12 304.63,219.08 304.61,973.44 519.15,973.45 519.15,219.08 765.14,219.09 765.15,0.02 -0,0 "/>
   <polygon class="fil0" points="0.01,219.12 304.63,219.08 304.61,973.44 519.15,973.45 519.15,219.08 765.14,219.09 765.15,0.02 -0,0 "/>
  </g>
 </g>
</svg>
